<?xml version="1.0" standalone="no"?>
<!DOCTYPE svg PUBLIC "-//W3C//DTD SVG 20010904//EN"
 "http://www.w3.org/TR/2001/REC-SVG-20010904/DTD/svg10.dtd">
<svg version="1.0" xmlns="http://www.w3.org/2000/svg"
 width="97.000000pt" height="191.000000pt" viewBox="0 0 97.000000 191.000000"
 preserveAspectRatio="xMidYMid meet">

<g transform="translate(0.000000,191.000000) scale(0.100000,-0.100000)"
fill="#000000" stroke="none">
<path d="M345 1500 c3 -5 2 -10 -3 -10 -5 0 -72 -120 -148 -267 l-138 -267
214 -423 c118 -233 217 -420 221 -415 10 11 419 822 415 822 -3 0 -60 -35
-127 -78 l-123 -78 -27 -100 c-32 -116 -38 -112 -9 8 11 46 20 86 20 91 0 4
-72 7 -160 7 -107 0 -160 -4 -160 -11 0 -6 11 -56 25 -111 14 -55 24 -102 22
-105 -3 -2 -12 27 -21 64 -43 171 -42 169 -107 208 -32 20 -59 39 -59 42 0 3
10 -1 23 -9 12 -8 39 -24 59 -37 l37 -22 6 23 c8 38 96 570 100 609 3 33 0 38
-32 53 -19 9 -32 12 -28 6z m252 -942 c-3 -8 -6 -5 -6 6 -1 11 2 17 5 13 3 -3
4 -12 1 -19z m-220 -30 c-3 -8 -6 -5 -6 6 -1 11 2 17 5 13 3 -3 4 -12 1 -19z
m210 -10 c-3 -8 -6 -5 -6 6 -1 11 2 17 5 13 3 -3 4 -12 1 -19z m-200 -30 c-3
-8 -6 -5 -6 6 -1 11 2 17 5 13 3 -3 4 -12 1 -19z"/>
<path d="M436 1433 c-10 -36 -116 -590 -116 -610 0 -20 3 -20 158 -15 86 2
159 6 161 8 4 3 -85 495 -100 556 -8 30 -18 42 -49 58 -48 24 -47 24 -54 3z"/>
<path d="M573 1363 c3 -10 22 -136 43 -280 21 -145 41 -263 45 -263 18 0 249
136 247 145 -8 30 -162 315 -170 315 -5 0 -7 4 -4 9 7 11 -43 33 -56 25 -6 -4
-8 -3 -5 3 4 6 -15 22 -42 37 -57 31 -64 32 -58 9z"/>
</g>
</svg>
